<svg xmlns="http://www.w3.org/2000/svg" width="40" height="21" fill="none" xmlns:v="https://vecta.io/nano"><path fill-rule="evenodd" d="M30.787 1.82l.69-1.817h-7.823l-2.686 3.274 1.24-3.274h-2.598l-4.037 10.909h2.565l1.722-4.561.117 4.561 3.688-.007-13.614 3.709c-3.747 1.057-8.021-1.247-4.932-7.461-3.578 4.227-6.96 9.858-3.975 12.448 2.894 2.511 6.508 1.025 8.972.033S39.831 6.741 39.831 6.741c.264-.131.215-.298-.114-.216-.055.013-5.336 1.454-11.426 3.11l.303-.848h-2.992l.983-2.645h2.464l.759-2.033h-2.461l.846-2.298h2.595v.01zm-8.262 8.362l-.163-5.687L26.236.216l-3.711 9.966zm-10.3.727H9.464l.313-4.826-1.794 4.826H5.418L9.49 0h2.728l-.316 4.891L13.729 0h2.565l-4.069 10.909zm.332 0L16.626 0h2.565l-4.069 10.909h-2.565z" fill="#101828"/></svg>