<svg xmlns="http://www.w3.org/2000/svg" xmlns:xlink="http://www.w3.org/1999/xlink" width="70" height="70" fill="none" xmlns:v="https://vecta.io/nano"><mask id="A" maskUnits="userSpaceOnUse" x="0" y="0" width="70" height="70" mask-type="alpha"><path d="M70 35c0 19.33-15.67 35-35 35S0 54.33 0 35 15.67 0 35 0s35 15.67 35 35z" fill="#f2ae98"/></mask><g mask="url(#A)"><path d="M70 35c0 19.33-15.67 35-35 35S0 54.33 0 35 15.67 0 35 0s35 15.67 35 35z" fill="#67c58c"/><path d="M32.211 17.804L9.54 38.691v31.35h50.921v-31.35L37.79 17.804c-1.577-1.454-4.002-1.454-5.578 0z" fill="#151e3d"/><use xlink:href="#F" fill-rule="evenodd" fill="url(#B)"/><use xlink:href="#F" fill-rule="evenodd" fill="#fff"/><use xlink:href="#G" fill="url(#C)"/><use xlink:href="#G" fill="#fff"/><path d="M60.461 70.041H9.54V38.767L35 54.404l25.461-15.637v31.275z" fill="url(#D)"/><path d="M51.586 70.346c3.155 0 4.667-3.875 2.346-6.012L38.041 49.701a4.18 4.18 0 0 0-6.082 0L16.068 64.334c-2.321 2.137-.809 6.012 2.347 6.012h33.171z" fill="url(#E)"/></g><circle cx="35" cy="35.693" r="7.495" fill="#67c58c"/><path d="M38.241 33.661l-4.234 4.234-1.924-1.924" stroke="#fff" stroke-width="1.5" stroke-linecap="round" stroke-linejoin="round"/><defs><linearGradient id="B" x1="43.047" y1="50.637" x2="16.571" y2="85.059" gradientUnits="userSpaceOnUse"><stop stop-color="#e56a61"/><stop offset="1" stop-color="#f19881"/></linearGradient><linearGradient id="C" x1="24.765" y1="64.189" x2="18.82" y2="74.095" gradientUnits="userSpaceOnUse"><stop stop-color="#e56a61"/><stop offset="1" stop-color="#f19881"/></linearGradient><linearGradient id="D" x1="45.066" y1="53.032" x2="34.409" y2="24.118" gradientUnits="userSpaceOnUse"><stop stop-color="#e56a61"/><stop offset="1" stop-color="#f19881"/></linearGradient><linearGradient id="E" x1="33.851" y1="79.43" x2="38.185" y2="10.343" gradientUnits="userSpaceOnUse"><stop offset=".063" stop-color="#e56a61"/><stop offset="1" stop-color="#f2ae98"/></linearGradient><path id="F" d="M55.353 44.551v26.354a3.53 3.53 0 0 1-3.53 3.53H29.717a3.53 3.53 0 0 1-2.497-1.035l-11.54-11.547a3.53 3.53 0 0 1-1.033-2.495V44.551 34.145 22.263H35.23h20.123v11.502 10.785z"/><path id="G" d="M28.644 60.674v1.004c0 3.086-3.731 4.632-5.913 2.449l-1.004-1.004c-2.182-2.182-.637-5.913 2.449-5.913h1.004c1.913 0 3.464 1.551 3.464 3.464z"/></defs></svg>