<svg xmlns="http://www.w3.org/2000/svg" width="66" height="57" viewBox="0 0 66 57">
    <path fill="#24ADED" fill-rule="evenodd" d="M51.173 47.624a2.792 2.792 0 0 1-3.508-1.836 2.812 2.812 0 0 1 1.83-3.523c7.209-2.277 10.865-8.12 10.865-17.373 0-10.628-8.612-19.273-19.202-19.273-9.205 0-17.13 6.584-18.85 15.656l-.572 3.016-2.942-.84a10.34 10.34 0 0 0-2.837-.406c-5.713 0-10.362 4.666-10.362 10.397 0 5.735 4.649 10.4 10.362 10.4l.572-.04c1.563-.06 2.863 1.107 2.943 2.655a2.803 2.803 0 0 1-2.647 2.955l-.187.014c-.225.018-.45.033-.68.033C7.157 49.46 0 42.274 0 33.442c0-8.83 7.159-16.016 15.957-16.016.51 0 1.019.026 1.528.077C20.662 7.212 30.212 0 41.158 0c13.674 0 24.797 11.167 24.797 24.892 0 11.819-5.11 19.68-14.782 22.732zM31.187 27.332c.008-.009.011-.024.02-.033a2.795 2.795 0 0 1 1.987-.823c.716 0 1.436.273 1.983.823.006.006.006.018.015.027l7.724 7.75a2.818 2.818 0 0 1 0 3.974 2.794 2.794 0 0 1-3.958 0l-2.96-2.973v17.684a2.804 2.804 0 0 1-2.801 2.81 2.804 2.804 0 0 1-2.798-2.81V36.065l-2.972 2.985a2.782 2.782 0 0 1-1.978.823 2.782 2.782 0 0 1-1.978-.823 2.813 2.813 0 0 1 0-3.973l7.716-7.745z"/>
</svg>
